<?xml version="1.0" encoding="utf-8"?>
<!-- Generator: Adobe Illustrator 24.1.1, SVG Export Plug-In . SVG Version: 6.00 Build 0)  -->
<svg version="1.1" id="レイヤー_1" xmlns="http://www.w3.org/2000/svg" xmlns:xlink="http://www.w3.org/1999/xlink" x="0px"
	 y="0px" viewBox="0 0 55.4 41.7" style="enable-background:new 0 0 55.4 41.7;" xml:space="preserve">
<style type="text/css">
	.st0{opacity:0.2;}
	.st1{fill:#E6E6E6;}
</style>
<g id="ad9e45d6-a458-4a3b-889c-1b2c9e0883fc" class="st0">
	<g id="af26531c-f06a-424f-a044-ff1b6797260c">
		<g>
			<path class="st1" d="M6.8,29l-2.7-4.6C4,24.2,3.9,23.9,4,23.6c0.1-0.5,0.4-0.8,0.8-1c0.4-0.3,1-0.3,1.4-0.1
				c0.2,0.1,0.4,0.3,0.5,0.5l7.7,13.4c0.2,0.3,0.2,0.6,0.2,0.9c-0.1,0.4-0.3,0.7-0.6,0.9c-0.5,0.4-1.3,0.2-1.7-0.3L11.7,37
				c0,0.7-0.1,1.3-0.4,1.9c-0.4,0.9-1.1,1.6-2,2.1c-1.6,1-3.5,1.1-5.2,0.2c-1.3-0.7-2.4-1.7-3.1-3c-0.8-1.3-1.1-2.7-1-4.2
				c0.1-1.8,1.2-3.5,2.8-4.4C4,28.8,5.4,28.6,6.8,29z M9.4,33.5l-0.5-0.8c-0.6-1-1.6-1.6-2.8-1.6c-0.6,0-1.1,0.1-1.6,0.4
				c-0.9,0.5-1.4,1.3-1.5,2.3c-0.1,1,0.2,1.9,0.7,2.8c0.4,0.7,1,1.4,1.7,1.8c1.3,0.9,3.1,0.5,4-0.8c0.2-0.3,0.3-0.6,0.4-0.9
				C10.1,35.6,10,34.4,9.4,33.5z"/>
			<path class="st1" d="M17.7,27.9l2.8,4.9c0.2,0.3,0.2,0.6,0.1,0.9c-0.1,0.4-0.4,0.8-0.8,1c-0.4,0.3-1,0.3-1.4,0.1
				c-0.2-0.1-0.4-0.3-0.5-0.5l-5.2-9c-0.1-0.3-0.2-0.6-0.1-0.8c0.1-0.4,0.4-0.8,0.8-1c0.4-0.3,1-0.3,1.4,0c0.2,0.1,0.3,0.2,0.4,0.4
				l0.6,1.1c0-0.7,0.1-1.3,0.2-2c0.3-0.9,0.9-1.7,1.8-2.2c0.7-0.4,1.4-0.5,2.2-0.4c0.5,0.1,0.9,0.4,1.2,0.8c0.2,0.3,0.2,0.7,0.2,1
				c-0.1,0.5-0.3,0.9-0.8,1.1c-0.2,0.2-0.5,0.2-0.8,0.2c-0.3,0-0.7,0-1,0.2C17.7,24.2,17.4,25.7,17.7,27.9z"/>
			<path class="st1" d="M30.4,15.6L30,14.9c-0.3-0.6-0.1-1.1,0.6-1.5c0.4-0.3,1-0.3,1.5,0c0.2,0.1,0.3,0.3,0.4,0.4l5.2,9.1
				c0.1,0.2,0.2,0.5,0.2,0.7c0,0.5-0.3,0.9-0.7,1.1c-0.5,0.4-1.3,0.2-1.7-0.3c0,0,0,0,0-0.1l-0.5-0.7c0,1.6-0.9,3.1-2.4,3.8
				c-1.6,1-3.6,1.1-5.2,0.2c-1.3-0.7-2.4-1.7-3.1-3c-0.7-1.2-1.1-2.6-1-4.1c0.1-1.9,1.2-3.6,2.8-4.5C27.3,15.2,28.9,15,30.4,15.6z
				 M32.6,20.1l-0.5-0.8c-0.4-0.8-1.2-1.3-2-1.5c-0.8-0.3-1.7-0.2-2.4,0.3c-0.8,0.5-1.4,1.3-1.4,2.3c-0.1,1,0.2,2,0.7,2.8
				c0.4,0.8,1,1.4,1.7,1.8c0.9,0.6,2.1,0.6,3,0c0.6-0.4,1.1-1,1.3-1.7C33.3,22.2,33.2,21,32.6,20.1z"/>
			<path class="st1" d="M37,10.2L36.3,9c-0.6-0.9-0.8-2-0.5-3.1c0.3-1.1,1-2,2-2.5c1-0.6,2.2-0.8,3.3-0.4c0.4,0.1,0.7,0.4,0.8,0.7
				c0.2,0.4,0.2,0.8,0.1,1.2c-0.1,0.3-0.3,0.5-0.6,0.6c-0.4,0.2-0.9,0.2-1.3,0c-0.3-0.2-0.7-0.2-1,0c-0.4,0.2-0.6,0.6-0.5,1
				c0,0.4,0.1,0.7,0.3,1l0.6,1.2l2.6-1.5c0.2-0.1,0.5-0.2,0.7-0.1c0.3,0.1,0.6,0.3,0.8,0.7C43.9,8.2,44,8.6,43.8,9
				c-0.1,0.2-0.2,0.3-0.4,0.4l-2.6,1.5l4.4,7.7c0.2,0.3,0.2,0.7,0.1,1c-0.1,0.4-0.4,0.7-0.8,0.9c-0.4,0.3-1,0.3-1.4,0.1
				c-0.2-0.1-0.4-0.3-0.5-0.5l-4.5-7.7l-2,1.2c-0.2,0.1-0.5,0.2-0.7,0.1c-0.3-0.1-0.6-0.3-0.8-0.7c-0.2-0.3-0.3-0.7-0.1-1.1
				c0.1-0.2,0.2-0.3,0.4-0.5L37,10.2z"/>
			<path class="st1" d="M46.9,4.5l-1.3-2.3c-0.2-0.3-0.2-0.6-0.1-0.9c0.1-0.4,0.4-0.8,0.8-1c0.4-0.3,1-0.3,1.5-0.1
				c0.2,0.1,0.4,0.3,0.5,0.5L49.5,3l2.1-1.2c0.2-0.1,0.5-0.2,0.8-0.1C52.8,1.8,53,2,53.2,2.3c0.2,0.4,0.3,0.8,0.1,1.2
				c-0.1,0.1-0.2,0.3-0.4,0.4l-2.1,1.2l4.4,7.6c0.2,0.2,0.2,0.5,0.2,0.8c-0.1,0.5-0.4,0.8-0.8,1.1c-0.4,0.3-1,0.3-1.5,0.1
				c-0.2-0.1-0.4-0.3-0.5-0.5l-4.4-7.7L46,7.9C45.8,8,45.6,8,45.4,8c-0.4-0.1-0.7-0.3-0.9-0.7c-0.3-0.4-0.3-0.8-0.1-1.2
				c0.1-0.2,0.2-0.3,0.4-0.4L46.9,4.5z"/>
		</g>
	</g>
</g>
</svg>
