<svg xmlns="http://www.w3.org/2000/svg" viewBox="0 0 55.38 41.7"><defs><style>.affb847a-618c-4b0e-8c7c-db2c567f270a{isolation:isolate;}.b7370318-186a-4755-8cb9-33b449b67f2a{fill:#e6e6e6;}</style></defs><g id="ad9e45d6-a458-4a3b-889c-1b2c9e0883fc" data-name="レイヤー 2"><g id="af26531c-f06a-424f-a044-ff1b6797260c" data-name="レイヤー 1"><g class="affb847a-618c-4b0e-8c7c-db2c567f270a"><path class="b7370318-186a-4755-8cb9-33b449b67f2a" d="M13.86,35.28,11.2,30.67a1.12,1.12,0,0,1-.15-.83,1.53,1.53,0,0,1,.82-1.05,1.44,1.44,0,0,1,1.45-.11,1.17,1.17,0,0,1,.49.47l7.74,13.41a1.23,1.23,0,0,1,.2.86,1.19,1.19,0,0,1-.65.88A1.21,1.21,0,0,1,19.43,44l-.67-.78a3.89,3.89,0,0,1-.38,1.89,4.8,4.8,0,0,1-2,2.06,5.21,5.21,0,0,1-5.19.22,7.4,7.4,0,0,1-3.08-3,7,7,0,0,1-1-4.21,5.33,5.33,0,0,1,2.78-4.36A4.41,4.41,0,0,1,13.86,35.28Zm2.6,4.46L16,38.92a3.15,3.15,0,0,0-2.75-1.62,3,3,0,0,0-1.64.4A2.81,2.81,0,0,0,10.14,40a4.61,4.61,0,0,0,.68,2.76,5,5,0,0,0,1.69,1.81,2.85,2.85,0,0,0,4.37-1.71A3.89,3.89,0,0,0,16.46,39.74Z" transform="translate(-7.08 -6.24)"/><path class="b7370318-186a-4755-8cb9-33b449b67f2a" d="M24.79,34.15,27.61,39a1.13,1.13,0,0,1,.14.89,1.59,1.59,0,0,1-.81,1,1.46,1.46,0,0,1-1.43.13,1.31,1.31,0,0,1-.52-.5l-5.21-9a1.2,1.2,0,0,1-.14-.84,1.49,1.49,0,0,1,.76-1,1.32,1.32,0,0,1,1.44,0,1.16,1.16,0,0,1,.4.42l.62,1.06a7.24,7.24,0,0,1,.23-2A3.84,3.84,0,0,1,24.87,27a3.06,3.06,0,0,1,2.18-.37,1.64,1.64,0,0,1,1.16.77,1.49,1.49,0,0,1,.18,1,1.45,1.45,0,0,1-.75,1.12,1.32,1.32,0,0,1-.83.19,1.54,1.54,0,0,0-1,.2C24.76,30.48,24.44,31.9,24.79,34.15Z" transform="translate(-7.08 -6.24)"/><path class="b7370318-186a-4755-8cb9-33b449b67f2a" d="M37.43,21.84l-.32-.69c-.28-.59-.07-1.07.6-1.46a1.31,1.31,0,0,1,1.48,0,1.17,1.17,0,0,1,.37.42l5.23,9.06a1.31,1.31,0,0,1,.2.7,1.25,1.25,0,0,1-.72,1.08,1.21,1.21,0,0,1-1.73-.37L42,29.92a4.16,4.16,0,0,1-2.39,3.79,5.25,5.25,0,0,1-5.21.22,7.3,7.3,0,0,1-3.07-3,6.9,6.9,0,0,1-1-4.07,5.65,5.65,0,0,1,2.81-4.53A4.64,4.64,0,0,1,37.43,21.84Zm2.29,4.47-.47-.82a3.11,3.11,0,0,0-2-1.48,3,3,0,0,0-2.44.27,2.8,2.8,0,0,0-1.44,2.25,4.56,4.56,0,0,0,.68,2.79,5,5,0,0,0,1.72,1.84,2.78,2.78,0,0,0,3,.05,2.82,2.82,0,0,0,1.28-1.67A3.88,3.88,0,0,0,39.72,26.31Z" transform="translate(-7.08 -6.24)"/><path class="b7370318-186a-4755-8cb9-33b449b67f2a" d="M44.06,16.44l-.69-1.21a4.08,4.08,0,0,1-.55-3.06,3.86,3.86,0,0,1,2-2.52,3.76,3.76,0,0,1,3.34-.36A1.48,1.48,0,0,1,49,10a1.24,1.24,0,0,1,.06,1.18,1.45,1.45,0,0,1-.6.65,1.24,1.24,0,0,1-1.25,0,1,1,0,0,0-1,0,1,1,0,0,0-.52,1,2,2,0,0,0,.31,1L46.64,15l2.62-1.51a.88.88,0,0,1,.69-.1,1.3,1.3,0,0,1,.8.66,1.22,1.22,0,0,1,.1,1.2.86.86,0,0,1-.37.36l-2.61,1.51,4.44,7.7a1.14,1.14,0,0,1,.12,1,1.66,1.66,0,0,1-.75.88,1.43,1.43,0,0,1-1.43.12,1.17,1.17,0,0,1-.51-.5l-4.45-7.7-2,1.18a.91.91,0,0,1-.7.1,1.32,1.32,0,0,1-.79-.66,1.23,1.23,0,0,1-.14-1.11.92.92,0,0,1,.4-.45Z" transform="translate(-7.08 -6.24)"/><path class="b7370318-186a-4755-8cb9-33b449b67f2a" d="M54,10.7,52.67,8.4a1.2,1.2,0,0,1-.14-.88,1.5,1.5,0,0,1,.8-1,1.43,1.43,0,0,1,1.46-.09,1.24,1.24,0,0,1,.5.49l1.33,2.3L58.76,8a.88.88,0,0,1,.77-.07,1.4,1.4,0,0,1,.76.65,1.24,1.24,0,0,1,.08,1.23,1,1,0,0,1-.36.36l-2.14,1.23L62.29,19a1.18,1.18,0,0,1,.16.83,1.57,1.57,0,0,1-.83,1.06,1.44,1.44,0,0,1-1.45.11,1.21,1.21,0,0,1-.5-.48l-4.42-7.67L53.11,14.1a.91.91,0,0,1-.64.11,1.26,1.26,0,0,1-.88-.68,1.18,1.18,0,0,1-.09-1.22.86.86,0,0,1,.36-.37Z" transform="translate(-7.08 -6.24)"/></g></g></g></svg>