<svg xmlns="http://www.w3.org/2000/svg" viewBox="0 0 772.69 268.16">
    <defs>
        <style>
            .a4290f91-44a5-4039-8f90-da38f8bbdc59{fill:#fff}
        </style>
    </defs>
    <g id="fd5fcd1e-4750-4abb-99ec-de5ea44e57df" data-name="レイヤー 2">
        <g id="e8bd397f-8504-40a6-b4e9-a77f2e5a67d7" data-name="レイヤー 2">
            <path class="a4290f91-44a5-4039-8f90-da38f8bbdc59" d="M186.43,223.19a99.55,99.55,0,0,1-35.37,36.54A87.46,87.46,0,0,1,129,269.5a16.61,16.61,0,0,1-4.46.75,6.94,6.94,0,0,1-6.4-3.53,6.24,6.24,0,0,1,1.52-8.42c.67-.68,2.55-1.71,5.64-3.12q19.7-9.09,30.48-21.89,2.26-2.78,6.06-8.42l-35.45,2.53h-.67a6.75,6.75,0,0,1-4.72-1.86,8.38,8.38,0,0,1-2.69-6.65q0-5.47,3.7-7.66a7.19,7.19,0,0,1,3.54-1.1l45.38-2.86a49.92,49.92,0,0,0,2.19-7.16q1.77-7.32,9.94-7.32a13.69,13.69,0,0,1,4.13.59q6.9,2,6.9,8.92a15.29,15.29,0,0,1-.42,3.54l38.39-2.44c1-.06,1.83-.09,2.45-.09q15.57,0,15.57,13.64,0,9-5.22,23.58-4.71,13.22-10.69,21.72Q227.95,271,217.83,271q-8.58,0-20.62-4.54A56.88,56.88,0,0,1,187,261.75q-4.22-2.52-4.21-6.23,0-5.9,5.47-5.89a18.7,18.7,0,0,1,5.3,1,52.75,52.75,0,0,0,15.5,2.27,10,10,0,0,0,8.84-4.72,66.11,66.11,0,0,0,8.84-21,17.5,17.5,0,0,0,.59-3.62q0-3.29-4.38-3Zm32.75-33.26-67.53,3.78q-2.52,5.56-9.68,5.56-8.5,0-9.35-8.25l-5.72-56.58c-.06-.68-.09-1.1-.09-1.27a8.55,8.55,0,0,1,3.2-6.82,10.59,10.59,0,0,1,6.91-2.27q6.32,0,8.92,3.7l80.41-5.38c1.24-.12,2.25-.17,3-.17q15.24,0,15.24,14.06c0,1.29-.06,2.5-.17,3.62l-5.22,47.49q-.93,8.59-9.94,8.59Q221,196,219.18,189.93Zm-44.71-38V141.42l-26.27,1.69.93,10.44Zm0,14.74-24.08,1.43.92,10.94,23.16-1.26Zm20.21-16.09,27.45-1.77.5-6.31v-.59c0-2.41-1.32-3.54-3.95-3.37l-24,1.52Zm0,26.11,25.26-1.44.93-11.36-26.19,1.6Z" transform="translate(-3.66 -2.85)"/>
            <path class="a4290f91-44a5-4039-8f90-da38f8bbdc59" d="M358.37,179.74A266.69,266.69,0,0,0,378.16,136q3.29-9.43,10.77-9.43a14.51,14.51,0,0,1,5.48,1q6.57,2.69,6.56,9.59a24.31,24.31,0,0,1-2,8,300.44,300.44,0,0,1-22.48,46.15,162,162,0,0,1,18.11,14.82,13.46,13.46,0,0,1,4.54,9.93,10.76,10.76,0,0,1-4.21,8.84,10.1,10.1,0,0,1-6.65,2.36q-4.8,0-9.51-4.8-6.66-6.73-14.66-13.39-22.39,28.13-49.51,44.13-10.6,6.22-15.15,6.23a7.37,7.37,0,0,1-6.23-3.2,8.31,8.31,0,0,1-1.77-4.89,8.86,8.86,0,0,1,3.37-6.65c.61-.5,2.63-1.88,6.06-4.12q24.92-16.34,46.81-44.8a213.58,213.58,0,0,0-21.47-14.31q-5.55-3.21-5.55-7.67a7.8,7.8,0,0,1,.84-3.53,7.63,7.63,0,0,1,7.41-4.38Q335.54,165.93,358.37,179.74Z" transform="translate(-3.66 -2.85)"/>
            <path class="a4290f91-44a5-4039-8f90-da38f8bbdc59" d="M524.08,188.92a264.75,264.75,0,0,1-42.61,23.91Q474.23,216,471,216a6.68,6.68,0,0,1-5.73-2.78,8.15,8.15,0,0,1-1.77-5,7.88,7.88,0,0,1,3.54-6.57q1.26-.92,9.35-5.22A279.73,279.73,0,0,0,523,164.83q20.81-17.34,32.34-34.18,3.7-5.57,9.26-5.56a11.73,11.73,0,0,1,6.23,1.94q5.48,3.36,5.47,9.09,0,4-4.37,9.52-12.13,15.31-31.08,30.9a8.9,8.9,0,0,1,4.64,8.25v70.73c0,3.48-1.13,6.12-3.37,7.91a11.29,11.29,0,0,1-7.41,2.36c-4.89,0-8.11-1.85-9.69-5.56a11.28,11.28,0,0,1-.92-4.71Z" transform="translate(-3.66 -2.85)"/>
            <path class="a4290f91-44a5-4039-8f90-da38f8bbdc59" d="M698.8,192.37v66a8.89,8.89,0,0,1-3,7.24,11.28,11.28,0,0,1-7.58,2.44q-10.79,0-10.78-9.68V132.5q0-9.6,10.78-9.6,7,0,9.51,4.8a10.23,10.23,0,0,1,1.1,4.8v41.43q30.06,7.83,46.73,18.86,7.32,4.71,7.33,11.53a10.77,10.77,0,0,1-3,7.67,10.39,10.39,0,0,1-7.92,3.45q-4,0-10-4.13A270.71,270.71,0,0,0,698.8,192.37Zm36.63-52q4.8,0,15.15,9.44,8.85,8,8.84,12.63a7,7,0,0,1-2.86,5.64,8.16,8.16,0,0,1-5.14,1.85q-3.87,0-6.56-4.38a88.42,88.42,0,0,0-12-15.32,7.31,7.31,0,0,1-2.36-5.06Q730.54,140.41,735.43,140.41Zm17.51-13.22q5.05,0,14.57,8,8.84,7.41,8.84,12.63a6.8,6.8,0,0,1-2.78,5.73,7.4,7.4,0,0,1-4.55,1.52c-2.41,0-4.54-1.41-6.4-4.21a83.23,83.23,0,0,0-12-14.07q-2.69-2.61-2.69-5a4.45,4.45,0,0,1,1.35-3.11A4.81,4.81,0,0,1,752.94,127.19Z" transform="translate(-3.66 -2.85)"/>
            <path class="a4290f91-44a5-4039-8f90-da38f8bbdc59" d="M40,31V47.71L47,47.36h.24a3.24,3.24,0,0,1,2.43.84,3.72,3.72,0,0,1,1.2,2.95c0,2.56-1.13,3.89-3.38,4l-7.28.35v9.85a3.45,3.45,0,0,1-1,2.53,4.85,4.85,0,0,1-3.52,1.3c-2,0-3.39-.74-4.07-2.22a3.5,3.5,0,0,1-.36-1.61V56l-7.7.39-.31,0A3.2,3.2,0,0,1,21,55.65a3.67,3.67,0,0,1-1.3-3.06c0-2.55,1.14-3.89,3.41-4l8.26-.43V33.43l-.24.36A88.31,88.31,0,0,1,16.35,50q-7.25,6.28-9.6,6.29A2.89,2.89,0,0,1,4.39,55a3.24,3.24,0,0,1-.73-1.93,3.17,3.17,0,0,1,1-2.22c.16-.16,1-.87,2.42-2.11A92.19,92.19,0,0,0,19.16,35.89q3.61-4.5,6.68-9.17l-15.19.91A3.23,3.23,0,0,1,7.38,26a5.15,5.15,0,0,1-.63-2.61q0-3.64,3.13-3.83l21.37-1.33V7.56a3.48,3.48,0,0,1,.85-2.39,4.61,4.61,0,0,1,3.62-1.44c2,0,3.34.73,4,2.21a3.51,3.51,0,0,1,.35,1.62V17.68l20.75-1.26.24,0a3.37,3.37,0,0,1,2.08.57,4.14,4.14,0,0,1,1.65,3.69q0,3.72-3.2,3.9L43.42,25.66a98,98,0,0,0,11.49,13,75.32,75.32,0,0,0,12.52,9.92c1.9,1.17,2.85,2.19,2.85,3s-.65,1.25-1.94,1.62a37.4,37.4,0,0,1-7.87,1.65,3.32,3.32,0,0,1-2.29-.8,72.81,72.81,0,0,1-7.66-8.3A127.42,127.42,0,0,1,40,31Z" transform="translate(-3.66 -2.85)"/>
            <path class="a4290f91-44a5-4039-8f90-da38f8bbdc59" d="M96.12,10.72l29.6-2.6h.42q3.13.14,3.13,3.41c0,2-.91,3-2.74,3.17l-35.79,3a73.1,73.1,0,0,1-6.86,6.44,4.45,4.45,0,0,1-2.77,1.23,2.88,2.88,0,0,1-2.25-1,2.8,2.8,0,0,1-.81-1.94c0-.89.7-2.08,2.11-3.58A62.12,62.12,0,0,0,89.37,5.63c1-1.86,2.31-2.78,4-2.78a4.49,4.49,0,0,1,2.14.53,3.56,3.56,0,0,1,2.11,3.3,7.83,7.83,0,0,1-1.33,3.73Zm20.53,24.47L81.74,37.93a3.69,3.69,0,0,1-2.22-.52,3,3,0,0,1-1.4-2.82q0-3.27,2.95-3.51l39.41-3,1.3,0q6,0,6,5.45a20.09,20.09,0,0,1-.18,2.28,65.59,65.59,0,0,0-.28,6.82c0,6.36,1,11.18,3.09,14.49a7.77,7.77,0,0,0,1.2,1.44c.66.66,1.14,1,1.44,1s.66-.56.92-1.68A39.94,39.94,0,0,0,135,51.19c.16-1.74,1.05-2.6,2.67-2.6q2.67,0,2.67,4.32,0,8.66-1.33,12.16-1.62,4.19-5.17,4.19c-2.39,0-4.85-1.33-7.38-4q-7.17-7.5-7.17-23.31l0-4.29c0-1.67-.75-2.5-2.25-2.5ZM105.47,50.52Q107.62,52,111,54.77c1.62,1.32,2.42,2.7,2.42,4.15a4.08,4.08,0,0,1-1.23,2.88,3.92,3.92,0,0,1-2.91,1.38,4.35,4.35,0,0,1-2.57-.92,21.94,21.94,0,0,1-2-1.9c-1.1-1-2.65-2.45-4.64-4.18a61.68,61.68,0,0,1-15.5,10.76,6.89,6.89,0,0,1-2.82.81,2.68,2.68,0,0,1-2.46-1.52,2.87,2.87,0,0,1-.38-1.44A3.1,3.1,0,0,1,80,62.47a24.56,24.56,0,0,1,2.74-1.83A71.48,71.48,0,0,0,94,51.36c-2.44-1.8-4.8-3.43-7.1-4.88-1.43-.89-2.14-1.9-2.14-3a2.94,2.94,0,0,1,.66-1.86,2.88,2.88,0,0,1,2.33-1.13,6.2,6.2,0,0,1,2.49.67q2.5,1.17,8.54,4.92a58.33,58.33,0,0,0,4.68-6.57q1.69-2.77,4.15-2.78a4.06,4.06,0,0,1,2.53.85,3.53,3.53,0,0,1,1.58,3,5.21,5.21,0,0,1-.88,2.78A62.08,62.08,0,0,1,105.47,50.52Zm14.87-25.91L91,27.07h-.49c-1.92,0-2.89-1-2.89-3s.94-3,2.82-3.17l29.28-2.39h.42a3.16,3.16,0,0,1,2,.67,2.7,2.7,0,0,1,1,2.29C123.12,23.41,122.19,24.47,120.34,24.61Z" transform="translate(-3.66 -2.85)"/>
            <path class="a4290f91-44a5-4039-8f90-da38f8bbdc59" d="M182.67,19.65a16.34,16.34,0,0,1,.49,4.29q0,5.2-3.09,13.68Q172.69,58,162.28,58q-4.18,0-7.52-4-4.5-5.44-4.5-14,0-9.07,7-16.53a33.94,33.94,0,0,1,11.78-8,37.15,37.15,0,0,1,14.27-2.84q10,0,16.87,5.59,8.31,6.75,8.3,18.17a25.4,25.4,0,0,1-6.12,17.12,29.27,29.27,0,0,1-12,8.23,9.43,9.43,0,0,1-3.13.7,3.24,3.24,0,0,1-3.06-1.79,3.06,3.06,0,0,1-.39-1.44c0-1.2.88-2.27,2.64-3.24q13-7.23,13-19.68,0-8.24-5.55-13a15.37,15.37,0,0,0-10.3-3.69Zm-7.94,1.58a28.18,28.18,0,0,0-12.24,8.41,15.81,15.81,0,0,0-3.86,10.12,16,16,0,0,0,1.68,7.77c.8,1.41,1.63,2.11,2.5,2.11,2,0,4.28-2.62,6.78-7.87A63.17,63.17,0,0,0,174,30.06a25.8,25.8,0,0,0,1-6,15,15,0,0,0-.17-1.94,4.6,4.6,0,0,0-.11-.63v-.07A1.5,1.5,0,0,0,174.73,21.23Z" transform="translate(-3.66 -2.85)"/>
            <path class="a4290f91-44a5-4039-8f90-da38f8bbdc59" d="M246.09,17h-5.27a2.77,2.77,0,0,1-2-.77,3.78,3.78,0,0,1-1.12-2.89,3.49,3.49,0,0,1,1.51-3.16,2.75,2.75,0,0,1,1.58-.46h20.29a2.88,2.88,0,0,1,2,.78,3.74,3.74,0,0,1,1.09,2.88,3.54,3.54,0,0,1-1.51,3.16,2.73,2.73,0,0,1-1.61.46h-5.24V55h5.24a2.88,2.88,0,0,1,2,.78,3.74,3.74,0,0,1,1.09,2.88,3.52,3.52,0,0,1-1.51,3.16,2.73,2.73,0,0,1-1.61.46H240.82a2.77,2.77,0,0,1-2-.77,3.69,3.69,0,0,1-1.12-2.88,3.5,3.5,0,0,1,1.51-3.17,2.75,2.75,0,0,1,1.58-.46h5.27Z" transform="translate(-3.66 -2.85)"/>
            <path class="a4290f91-44a5-4039-8f90-da38f8bbdc59" d="M287.93,18.42H272.81a3.25,3.25,0,0,1-1.76-.46,4.17,4.17,0,0,1-1.82-3.86,4.55,4.55,0,0,1,1.37-3.55,3,3,0,0,1,2.21-.85H313a3.28,3.28,0,0,1,2,.6,4.43,4.43,0,0,1,1.62,3.76,4.42,4.42,0,0,1-1.44,3.62,3.19,3.19,0,0,1-2.14.74H297.88V59a3.61,3.61,0,0,1-1.27,2.88,5.44,5.44,0,0,1-3.72,1.23c-2.09,0-3.55-.68-4.4-2a3.79,3.79,0,0,1-.56-2.07Z" transform="translate(-3.66 -2.85)"/>
            <path class="a4290f91-44a5-4039-8f90-da38f8bbdc59" d="M355.82,25.1l-.11,1.76a98.51,98.51,0,0,1-2.46,17q-2.72,11.7-7.56,18.91c-1.17,1.78-2.45,2.68-3.83,2.68a3.32,3.32,0,0,1-1.9-.6,3,3,0,0,1-1.33-2.53,9.56,9.56,0,0,1,1.3-3.59q4.17-8,6-21.23a214,214,0,0,0,1.58-23c-1.4-.39-2.1-1.45-2.1-3.16q0-3,2.88-3.2l43.84-2.95.91,0c3.78,0,5.66,1.44,5.66,4.33a8.91,8.91,0,0,1-.53,2.92l-1.44,4.39a2.83,2.83,0,0,1,1.3,2.6c0,2-.91,3.05-2.74,3.17Zm32.66,17.76q-5.25,1.05-11,1.82,3.3.49,3.3,3.13v1.37l12.8-.66h.21q3.09,0,3.09,3.16c0,2.16-1,3.28-3,3.37l-13.08.64v4.08l18.78-.67a3.36,3.36,0,0,1,1.89.45,3.11,3.11,0,0,1,1.41,2.85q0,3.45-3.09,3.55L354,67.39h-.17a3.05,3.05,0,0,1-2.15-.77,3.25,3.25,0,0,1-1-2.49,3.19,3.19,0,0,1,1.55-3,2.94,2.94,0,0,1,1.47-.42l18.42-.63v-4l-12.09.6h-.18a2.85,2.85,0,0,1-2.1-.74,3,3,0,0,1-1-2.39c0-2.08,1-3.18,3-3.3l12.3-.63v-1.8A3,3,0,0,1,374,45.14a108.36,108.36,0,0,1-12.24,1.34A3.15,3.15,0,0,1,359,44.82a5.12,5.12,0,0,1-1-2.6,4.32,4.32,0,0,1,1.58-2.63q2.61-2.56,4.54-4.79l-4.82.32a3,3,0,0,1-1.93-.46A3.06,3.06,0,0,1,356,31.92c0-2.15,1-3.29,3-3.41l36-2.39h.28a2.88,2.88,0,0,1,2.32,1,3.59,3.59,0,0,1,.81,2.42q0,3-2.88,3.24l-8.54.52a21.22,21.22,0,0,1,6.39,4.36q3,2.72,3,4.68a3.51,3.51,0,0,1-1.23,2.74,4.23,4.23,0,0,1-2.82,1.06,3.63,3.63,0,0,1-3.05-2C389.05,43.69,388.76,43.25,388.48,42.86ZM356.17,18.91l32.27-2.07.77-3.76a1.65,1.65,0,0,0,.08-.46q0-.91-.81-.84l-.25,0L356.45,14l0,.42c0,.36,0,.88-.07,1.59C356.27,17.17,356.21,18.14,356.17,18.91Zm28.51,19.16a3.84,3.84,0,0,1-1.44-2.53,2.45,2.45,0,0,1,1.26-2.07l-10.72.7q-3.37,3.38-6.08,5.63Q376.24,39.28,384.68,38.07Z" transform="translate(-3.66 -2.85)"/>
        </g>
    </g>
</svg>
