<svg xmlns="http://www.w3.org/2000/svg" viewBox="0 0 659.22 148.79"><defs><style>.cls-1{fill:#fff;}</style></defs><g id="レイヤー_2" data-name="レイヤー 2"><g id="レイヤー_2-2" data-name="レイヤー 2"><path class="cls-1" d="M87.06,114.26A99.47,99.47,0,0,1,51.7,150.81a87.56,87.56,0,0,1-22.06,9.76,16.28,16.28,0,0,1-4.46.76,6.94,6.94,0,0,1-6.4-3.54,6.41,6.41,0,0,1-1-3.36,6.52,6.52,0,0,1,2.52-5.05q1-1,5.64-3.12,19.71-9.09,30.49-21.89,2.27-2.79,6.06-8.42L27,118.47h-.67a6.74,6.74,0,0,1-4.72-1.85A8.35,8.35,0,0,1,19,110q0-5.48,3.7-7.66a7.09,7.09,0,0,1,3.54-1.1l45.38-2.86a49.92,49.92,0,0,0,2.19-7.16q1.77-7.32,9.94-7.32a13.32,13.32,0,0,1,4.12.59q6.92,2,6.91,8.92a15.29,15.29,0,0,1-.42,3.54l38.39-2.44c1-.06,1.83-.09,2.44-.09q15.59,0,15.58,13.64,0,9-5.22,23.58a91.15,91.15,0,0,1-10.69,21.72q-6.24,8.76-16.34,8.76-8.58,0-20.63-4.55a56.54,56.54,0,0,1-10.19-4.71c-2.8-1.69-4.21-3.76-4.21-6.23q0-5.9,5.48-5.9a19.19,19.19,0,0,1,5.3,1,52.42,52.42,0,0,0,15.5,2.28,10,10,0,0,0,8.84-4.72,66.07,66.07,0,0,0,8.84-21,17.31,17.31,0,0,0,.59-3.62q0-3.29-4.38-2.94ZM119.82,81,52.29,84.79q-2.52,5.56-9.68,5.56-8.51,0-9.35-8.25L27.53,25.51c-.05-.67-.08-1.09-.08-1.26a8.55,8.55,0,0,1,3.2-6.82,10.5,10.5,0,0,1,6.9-2.27q6.31,0,8.93,3.7l80.41-5.39c1.24-.11,2.25-.17,3-.17q15.24,0,15.24,14.07c0,1.29,0,2.49-.16,3.62l-5.22,47.49q-.93,8.58-9.94,8.58Q121.67,87.06,119.82,81ZM75.11,43V32.5L48.84,34.19l.92,10.44Zm0,14.73L51,59.19l.92,11,23.16-1.26ZM95.32,41.68l27.45-1.77.5-6.31V33q0-3.63-4-3.37l-24,1.51Zm0,26.1,25.26-1.43L121.5,55l-26.18,1.6Z" transform="translate(-17.77 -13.3)"/><path class="cls-1" d="M259,70.81a266.31,266.31,0,0,0,19.78-43.7q3.29-9.42,10.78-9.43a14.62,14.62,0,0,1,5.47,1q6.57,2.7,6.57,9.6a24.37,24.37,0,0,1-2,8,301.71,301.71,0,0,1-22.48,46.14,161.85,161.85,0,0,1,18.1,14.82,13.48,13.48,0,0,1,4.55,9.94,10.76,10.76,0,0,1-4.21,8.84,10.17,10.17,0,0,1-6.65,2.36q-4.8,0-9.52-4.8-6.64-6.74-14.65-13.39-22.4,28.12-49.51,44.12-10.6,6.24-15.16,6.23a7.36,7.36,0,0,1-6.23-3.2,8.24,8.24,0,0,1-1.76-4.88,8.88,8.88,0,0,1,3.36-6.65c.62-.51,2.64-1.88,6.07-4.13q24.92-16.34,46.81-44.79a216.67,216.67,0,0,0-21.47-14.32q-5.55-3.19-5.56-7.66a7.76,7.76,0,0,1,.85-3.54A7.63,7.63,0,0,1,229.54,57Q236.19,57,259,70.81Z" transform="translate(-17.77 -13.3)"/><path class="cls-1" d="M424.72,80a264.07,264.07,0,0,1-42.61,23.92q-7.25,3.2-10.53,3.2a6.66,6.66,0,0,1-5.72-2.78,8.15,8.15,0,0,1-1.77-5,7.88,7.88,0,0,1,3.54-6.57q1.26-.93,9.34-5.22a280.21,280.21,0,0,0,46.65-31.66Q444.43,38.57,456,21.72q3.69-5.55,9.26-5.55a11.74,11.74,0,0,1,6.23,1.93q5.48,3.38,5.47,9.1,0,4-4.38,9.51Q460.42,52,441.47,67.61a8.91,8.91,0,0,1,4.63,8.26V146.6c0,3.48-1.12,6.11-3.36,7.91a11.29,11.29,0,0,1-7.41,2.36q-7.33,0-9.69-5.56a11.18,11.18,0,0,1-.92-4.71Z" transform="translate(-17.77 -13.3)"/><path class="cls-1" d="M599.44,83.44v66a8.87,8.87,0,0,1-3,7.24,11.24,11.24,0,0,1-7.57,2.44q-10.79,0-10.78-9.68V23.58q0-9.6,10.78-9.6,7,0,9.51,4.8a10.23,10.23,0,0,1,1.1,4.8V65q30.06,7.83,46.73,18.87,7.32,4.71,7.32,11.53a10.73,10.73,0,0,1-3,7.66,10.33,10.33,0,0,1-7.91,3.46q-4,0-10-4.13A272,272,0,0,0,599.44,83.44Zm36.62-51.95q4.8,0,15.16,9.43,8.84,8,8.84,12.63a6.92,6.92,0,0,1-2.86,5.64,8.11,8.11,0,0,1-5.14,1.86q-3.87,0-6.56-4.38a89.35,89.35,0,0,0-12-15.33,7.27,7.27,0,0,1-2.36-5.05Q631.18,31.49,636.06,31.49Zm17.52-13.22q5.05,0,14.57,8Q677,33.68,677,38.9a6.82,6.82,0,0,1-2.78,5.73,7.41,7.41,0,0,1-4.55,1.51c-2.41,0-4.55-1.4-6.4-4.21a83.65,83.65,0,0,0-12-14.06c-1.8-1.74-2.69-3.42-2.69-5.05a4.48,4.48,0,0,1,1.34-3.12A4.87,4.87,0,0,1,653.58,18.27Z" transform="translate(-17.77 -13.3)"/></g></g></svg>